<svg xmlns="http://www.w3.org/2000/svg" height="1024" preserveAspectRatio="none" version="1.1" viewBox="0 0 2048 2048" width="1024"><path d="M 1522.77 392.896 C 1525.88 381.758 1528.37 373.223 1533.78 362.902 C 1548.73 334.724 1574.29 313.659 1604.81 304.362 C 1633.07 295.884 1663.54 298.93 1689.57 312.835 C 1716.87 327.459 1737.21 352.361 1746.1 382.029 C 1754.72 411.534 1751.25 443.254 1736.47 470.202 C 1719.35 501.132 1693.01 516.256 1660.15 525.522 C 1657.97 548.166 1659.65 587.437 1660.02 610.976 C 1689.05 619.244 1712.15 633.192 1729.68 658.139 C 1745.66 691.071 1745.15 692.968 1745.15 692.968 C 1748.53 714.548 1745.03 741.271 1747.07 754.33 C 1732.13 800.554 1704.93 822.328 1659.97 836.01 C 1659.19 860.495 1659.25 891.85 1660.1 916.39 C 1683.46 918.929 1726 957.429 1726 957.429 C 1745.11 981.003 1753.97 1011.25 1750.61 1041.41 C 1746.78 1071.65 1731.19 1099.17 1707.21 1118 C 1692.7 1129.27 1677.48 1134.78 1660.14 1140.1 C 1659.23 1164.06 1657.65 1196.41 1660.09 1219.79 C 1690.53 1226.78 1733.7 1271.86 1733.7 1271.86 C 1745.58 1298.2 1745.58 1298.2 1745.58 1298.2 C 1743.77 1351.95 1701.26 1429.89 1660.19 1442.96 C 1659.5 1466.31 1659.09 1507.79 1660.24 1531.17 C 1695.35 1537.15 1745.76 1608.9 1745.76 1608.9 C 1748.54 1641.95 1748.54 1641.95 1748.54 1641.95 C 1743.39 1683.14 1717.02 1724.04 1717.02 1724.04 C 1704.7 1739.52 1678.64 1751.35 1659.5 1754.92 C 1593.8 1767.17 1534.76 1727.45 1522.83 1661.09 C 1433.31 1659.29 1342.54 1662.03 1252.87 1660.93 C 1178.58 1660.12 1143.04 1661.55 1143.04 1661.55 C 1134.19 1692.07 1123.67 1706.92 1123.67 1706.92 C 1086.53 1759.29 1011.44 1772.99 959.231 1734.86 C 916.855 1689.6 912.555 1661.24 912.555 1661.24 C 893.721 1660.42 872.656 1661.01 853.639 1661.02 L 750.064 1660.97 C 601.919 1659.47 531.586 1661.47 531.586 1661.47 C 525.113 1674.54 518.555 1697.77 518.555 1697.77 C 478.143 1744.82 419.718 1760.43 358.57 1742.44 C 313.317 1703.07 305.719 1674.04 305.719 1674.04 C 291.314 1620.85 315.856 1563.19 391.688 1531.2 C 390.799 1503.08 391.888 1443.47 391.888 1443.47 C 378.362 1438.5 332.66 1414.72 332.66 1414.72 C 297.49 1329.9 302.147 1298.78 317.787 1272.82 C 334.515 1245.39 391.625 1220.32 391.625 1220.32 C 392.441 1194.43 391.866 1140.57 391.866 1140.57 C 347.865 1125.76 305.21 1056.38 305.21 1056.38 C 297.617 1026.91 302.012 995.633 317.432 969.396 C 333.734 941.878 392.076 916.096 392.076 916.096 C 392.35 889.425 391.977 835.58 391.977 835.58 C 380.62 831.344 359.801 822.555 359.801 822.555 C 306.119 794.531 284.624 721.135 315.251 668.594 C 356.602 621.507 391.316 611.599 391.316 611.599 C 392.336 599.008 390.949 525.195 390.949 525.195 C 374.841 521.368 347.606 505.858 347.606 505.858 C 306.352 368.952 324.49 345.251 324.49 345.251 C 370.222 304.828 430.622 296.887 485.144 323.649 C 528.386 392.68 528.386 392.68 528.386 392.68 C 627.235 392.84 913.236 393.023 913.236 393.023 C 925.461 359.779 966.476 312.682 996.505 304.059 C 1083.02 315.096 1083.02 315.096 1083.02 315.096 C 1131.54 358.367 1141.18 392.93 1141.18 392.93 C 1264.37 392.776 1522.77 392.896 1522.77 392.896 Z M 726.5 1615.95 L 916.746 1614.17 C 872.826 1591.86 714.994 1514.71 714.994 1514.71 L 526.371 1606.89 C 528.18 1614.45 726.5 1615.95 726.5 1615.95 Z M 1331.5 1615.91 L 1522.42 1614.67 C 1485.72 1586.25 1336.3 1514.73 1336.3 1514.73 L 1140.84 1612.72 C 1146.29 1617.98 1331.5 1615.91 1331.5 1615.91 Z M 716.152 539.232 C 770.865 512.401 846.263 475.638 846.263 475.638 L 528.523 438.963 C 528.994 451.125 716.152 539.232 716.152 539.232 Z M 1337.57 540.097 C 1404 506.873 1459.69 479.355 1459.69 479.355 L 1523.27 439.793 C 1516.22 437.434 1337.57 540.097 1337.57 540.097 Z" fill="rgb(0,0,0)"></path><path d="M 1013.78 958.521 C 1051.43 951.806 1087.43 976.769 1094.35 1014.38 C 1101.26 1052 1076.5 1088.14 1038.92 1095.25 C 1001.05 1102.43 964.582 1077.43 957.613 1039.53 C 950.644 1001.62 975.839 965.286 1013.78 958.521 Z" fill="rgb(235,210,161)"></path><path d="M 1014.85 345.381 C 1052.51 339.032 1088.2 364.369 1094.63 402.016 C 1101.05 439.662 1075.79 475.405 1038.16 481.908 C 1000.41 488.431 964.544 463.077 958.099 425.321 C 951.654 387.565 977.081 351.748 1014.85 345.381 Z" fill="rgb(191,146,87)"></path><path d="M 1014.26 655.119 C 1051.82 648.733 1087.41 674.097 1093.64 711.684 C 1099.87 749.272 1074.36 784.762 1036.74 790.833 C 999.353 796.869 964.118 771.54 957.926 734.174 C 951.734 696.808 976.915 661.467 1014.26 655.119 Z" fill="rgb(191,146,87)"></path><path d="M 1014.03 1263.85 C 1051.57 1257.68 1086.97 1283.2 1092.98 1320.77 C 1098.99 1358.34 1073.32 1393.64 1035.73 1399.49 C 998.359 1405.32 963.311 1379.83 957.334 1342.48 C 951.357 1305.13 976.701 1269.98 1014.03 1263.85 Z" fill="rgb(100,147,154)"></path><path d="M 1016.73 1574.52 C 1054.4 1569.97 1088.6 1596.9 1092.99 1634.59 C 1097.39 1672.28 1070.31 1706.36 1032.6 1710.6 C 995.117 1714.82 961.277 1687.93 956.907 1650.46 C 952.537 1612.99 979.284 1579.04 1016.73 1574.52 Z" fill="rgb(116,121,155)"></path><path d="M 408.197 345.362 C 445.748 341.104 479.635 368.108 483.867 405.662 C 488.1 443.215 461.074 477.084 423.517 481.292 C 385.996 485.495 352.166 458.5 347.937 420.982 C 343.709 383.463 370.682 349.615 408.197 345.362 Z" fill="rgb(191,93,72)"></path><path d="M 404.414 960.678 C 441.813 954.224 477.306 979.482 483.463 1016.93 C 489.62 1054.38 464.083 1089.67 426.586 1095.53 C 389.507 1101.33 354.693 1076.14 348.604 1039.1 C 342.516 1002.07 367.431 967.059 404.414 960.678 Z" fill="rgb(235,210,161)"></path><path d="M 1624.52 961.227 C 1661.78 954.886 1697.1 980.032 1703.3 1017.32 C 1709.5 1054.6 1684.22 1089.83 1646.92 1095.89 C 1609.81 1101.93 1574.8 1076.81 1568.63 1039.72 C 1562.46 1002.63 1587.45 967.534 1624.52 961.227 Z" fill="rgb(235,210,161)"></path><path d="M 1625.2 346.293 C 1662.29 340.099 1697.37 365.149 1703.56 402.238 C 1709.74 439.328 1684.68 474.407 1647.59 480.582 C 1610.52 486.756 1575.45 461.708 1569.27 424.632 C 1563.09 387.555 1588.12 352.485 1625.2 346.293 Z" fill="rgb(116,121,155)"></path><path d="M 409.36 1574.29 C 446.49 1571.08 479.288 1598.35 482.906 1635.44 C 486.525 1672.53 459.616 1705.63 422.565 1709.65 C 385.514 1713.67 352.716 1686.4 349.097 1649.31 C 345.479 1612.22 372.23 1578.51 409.36 1574.29 Z" fill="rgb(116,121,155)"></path><path d="M 1634.69 1573.93 C 1672.14 1572.73 1703.5 1602.04 1704.83 1639.48 C 1706.15 1676.92 1676.95 1708.38 1639.51 1709.84 C 1601.9 1711.3 1570.26 1681.92 1568.92 1644.3 C 1567.59 1606.68 1597.07 1575.14 1634.69 1573.93 Z" fill="rgb(116,121,155)"></path><path d="M 408.828 1264.82 C 446.251 1261.12 479.549 1288.55 483.084 1325.99 C 486.62 1363.43 459.046 1396.6 421.593 1399.98 C 384.367 1403.33 351.435 1375.96 347.921 1338.75 C 344.407 1301.54 371.634 1268.49 408.828 1264.82 Z" fill="rgb(100,147,154)"></path><path d="M 1627.27 657.391 C 1664.27 652.245 1698.47 677.97 1703.78 714.944 C 1709.09 751.917 1683.52 786.232 1646.58 791.713 C 1609.39 797.229 1574.81 771.459 1569.46 734.248 C 1564.11 697.037 1590.04 662.571 1627.27 657.391 Z" fill="rgb(100,147,154)"></path><path d="M 1630.58 1264.95 C 1667.93 1261.48 1700.98 1289.04 1704.29 1326.4 C 1707.6 1363.77 1679.91 1396.7 1642.53 1399.85 C 1605.38 1402.98 1572.68 1375.49 1569.39 1338.35 C 1566.1 1301.21 1593.46 1268.4 1630.58 1264.95 Z" fill="rgb(100,147,154)"></path><path d="M 411.081 656.763 C 448.094 654.199 480.253 681.956 483.126 718.946 C 486 755.937 458.514 788.327 421.549 791.51 C 384.143 794.732 351.282 766.846 348.374 729.415 C 345.466 691.983 373.626 659.357 411.081 656.763 Z" fill="rgb(191,146,87)"></path></svg>
