<svg xmlns="http://www.w3.org/2000/svg" height="1024" preserveAspectRatio="none" version="1.1" viewBox="0 0 2048 2048" width="1024"><path d="M 1023.3 190.335 C 1033.34 190.805 1040.09 194.049 1047.68 200.598 C 1194.16 326.979 1299.93 503.862 1324.98 696.439 C 1328.82 725.191 1330.8 754.159 1330.91 783.165 C 1330.98 802.47 1329.97 838.304 1331.61 856.274 L 1331.74 857.628 C 1343.07 860.847 1361.19 870.32 1371.94 876.227 C 1431.62 908.86 1481.37 957.005 1515.96 1015.58 C 1568.92 1103.97 1570.98 1173.09 1571.27 1271.56 L 1571.23 1395.51 C 1571.04 1416.92 1573.93 1478.9 1569.96 1493.34 C 1567.76 1501.33 1562.87 1508.6 1555.44 1512.54 C 1547.23 1516.89 1536.06 1517.24 1527.34 1514.34 C 1520 1511.89 1513.83 1506.81 1510.01 1500.09 C 1504.03 1489.6 1502.04 1469.01 1498.54 1456.47 C 1475.39 1373.38 1412.55 1312.63 1331.34 1285.04 C 1330.88 1296.81 1331.52 1314.79 1331.48 1327.14 L 1331.42 1433.53 C 1331.44 1467.67 1334.89 1503.23 1317.56 1534.38 C 1300.3 1565.4 1277.77 1578.48 1244.72 1588.27 C 1253.02 1610.55 1257.41 1633.06 1253.85 1656.79 C 1252.11 1668.39 1247.82 1679.48 1242.57 1689.93 C 1235.05 1704.88 1190.37 1773.07 1179.78 1780.52 C 1172.73 1785.49 1163.26 1786.72 1154.92 1785.02 C 1136.19 1781.21 1125.58 1756.71 1115.51 1741.91 C 1099.66 1767.97 1079.68 1791.99 1066.06 1819.4 C 1054.42 1842.82 1055.07 1859.4 1024.05 1861.06 C 993.572 1856.51 995.029 1833.01 980.762 1810.82 C 966.454 1788.57 951.554 1762.35 934.843 1741.94 C 918.782 1763.23 911.632 1798.09 873.523 1781.13 C 866.284 1777.9 859.394 1767.73 855.182 1761.05 C 841.119 1738.72 821.709 1716.49 808.822 1693.73 C 804.478 1686.09 800.984 1678 798.403 1669.6 C 790.501 1644.18 796.395 1612.42 809.075 1589.14 C 788.819 1583.36 774.312 1577.38 758.202 1563.24 C 714.768 1525.14 722.944 1469.91 722.783 1418.06 C 722.746 1373.29 722.392 1328.52 721.723 1283.76 C 707.712 1287.13 696.95 1291.51 683.914 1297.95 C 623.038 1327.98 576.855 1381.3 555.824 1445.84 C 550.307 1462.99 549.038 1479.25 544.462 1496.3 C 539.744 1513.88 517.669 1520.3 501.956 1514.06 C 487.374 1508.27 480.769 1496.3 480.752 1481.02 C 480.541 1467 480.612 1452.82 480.642 1438.71 L 480.822 1356.94 C 480.843 1306.89 479.202 1252.29 480.633 1202.75 C 480.996 1189.45 482.082 1176.17 483.885 1162.99 C 488.228 1128.29 497.584 1094.41 511.659 1062.4 C 553.199 967.387 625.244 894.931 721.945 856.938 C 724.415 813.89 721.481 770.614 724.862 727.477 C 736.757 575.693 795.681 440.113 888.744 320.458 C 916.733 284.47 948.026 252.092 980.726 220.429 C 989.999 211.45 999.499 200.607 1010.57 193.874 C 1014.6 191.428 1018.72 190.909 1023.3 190.335 Z" fill="rgb(35,27,35)"></path><path d="M 852.785 506.016 C 967.051 505.642 1084.69 504.434 1198.78 506.169 C 1227.37 567.568 1246.9 632.791 1256.76 699.798 C 1263.91 749.943 1262.13 810.629 1262.15 862.089 L 1262.18 1086.34 L 1262.14 1248.47 L 1262.06 1294.65 C 1262.05 1303.12 1262.41 1315.32 1261.32 1323.42 C 1117.11 1177.1 917.65 1177.23 789.318 1327.85 L 789.311 934.753 L 789.153 822.253 C 789.067 775.652 788.42 732.192 796.026 685.882 C 806.594 621.544 826.305 565.194 852.785 506.016 Z" fill="rgb(229,221,198)"></path><path d="M 1013.15 690.445 C 1110.58 683.395 1195.28 756.695 1202.28 854.137 C 1209.28 951.579 1135.94 1036.24 1038.5 1043.19 C 941.12 1050.15 856.531 976.866 849.533 879.49 C 842.534 782.114 915.774 697.491 1013.15 690.445 Z" fill="rgb(35,27,35)"></path><path d="M 1013.42 757.607 C 1073.87 750.205 1128.89 793.177 1136.36 853.624 C 1143.83 914.072 1100.91 969.14 1040.47 976.671 C 979.944 984.213 924.774 941.221 917.297 880.682 C 909.819 820.144 952.87 765.021 1013.42 757.607 Z" fill="rgb(233,164,35)"></path><path d="M 1018.57 789.597 C 1061.33 785.308 1099.44 816.583 1103.57 859.361 C 1107.71 902.14 1076.3 940.137 1033.51 944.122 C 990.93 948.087 953.164 916.868 949.048 874.304 C 944.932 831.74 976.016 793.864 1018.57 789.597 Z" fill="rgb(229,221,198)"></path><path d="M 1331.01 930.939 C 1357.47 943.545 1381.81 960.171 1403.18 980.226 C 1464.56 1036.4 1500.12 1118.96 1503.75 1201.69 C 1505 1230.22 1504.2 1260.52 1504.68 1289.22 C 1504.78 1295.27 1505.11 1320 1504.27 1324.26 C 1466.37 1283.67 1440.58 1264.59 1400.93 1243.11 C 1374.42 1230.16 1357.07 1225.66 1331.12 1215.24 C 1329.55 1121.74 1330.95 1024.69 1331.01 930.939 Z" fill="rgb(94,172,167)"></path><path d="M 652.726 977.841 C 673.241 958.338 696.844 942.366 722.577 930.572 L 722.913 1213.38 C 695.643 1222.26 679.301 1227.69 653.593 1240.53 C 606.4 1265.32 583.329 1286.51 548.401 1325.28 C 547.549 1307.53 548.874 1288.9 548.04 1271.3 C 542.527 1154.9 564.446 1061.42 652.726 977.841 Z" fill="rgb(233,164,35)"></path><path d="M 1055.89 1283.7 C 1093.23 1286.26 1143.74 1310.54 1172.93 1332.93 C 1211.44 1362.7 1240.29 1403.2 1255.86 1449.32 C 1264.38 1475.34 1268.19 1488.1 1250.43 1511.11 C 1245.19 1516.24 1237.36 1522.59 1229.98 1523.24 C 1211.61 1524.84 1188.99 1524.11 1170.62 1524.1 L 1056.1 1524.58 L 1055.89 1283.7 Z" fill="rgb(109,115,162)"></path><path d="M 988.178 1284.38 L 989.455 1284.97 C 990.15 1291.45 989.82 1304.48 989.839 1311.29 L 989.937 1362.61 L 990.051 1523.97 L 876.771 1524.01 C 858.243 1524.02 836.685 1524.84 818.436 1522.46 C 813.404 1521.8 806.07 1516.84 801.956 1513.79 C 789.43 1500.98 786.333 1490.44 789.203 1472.64 C 804.517 1377.65 894.827 1298.43 988.178 1284.38 Z" fill="rgb(109,115,162)"></path><path d="M 914.224 399.919 C 930.78 401.077 952.224 400.318 969.286 399.93 C 1024.8 398.665 1082.25 401.656 1137.59 399.731 C 1146.77 411.134 1155.38 426.439 1162.82 439.144 L 888.243 438.849 C 897.625 426.359 903.499 412.943 914.224 399.919 Z" fill="rgb(200,85,69)"></path><path d="M 991.085 1590.01 C 1008.18 1589.79 1049.9 1587.2 1066.17 1593.52 C 1076.06 1597.36 1085.74 1619.44 1087.8 1630.75 C 1093.49 1661.92 1078.28 1681.53 1060.69 1705.21 C 1053.36 1715.18 1046.19 1725.27 1039.18 1735.48 L 1024.73 1755.35 C 1007.64 1734.42 991.711 1710.67 976.369 1688.39 C 953.685 1655.44 955.477 1612.76 991.085 1590.01 Z" fill="rgb(200,85,69)"></path><path d="M 1141.72 1589.67 C 1151.03 1589.9 1164.41 1588.09 1171.44 1594.05 C 1194.11 1613.26 1194.57 1651.19 1175.54 1673.2 C 1170.6 1679.77 1167.37 1684.07 1162.97 1689.13 L 1151.08 1673.03 C 1153.8 1656.13 1153.84 1638.91 1151.19 1622 C 1149.19 1609.07 1145.98 1601.88 1141.72 1589.67 Z" fill="rgb(233,164,35)"></path><path d="M 890.47 1590.1 C 897.15 1589.8 900.012 1590.14 906.432 1590.85 C 893.343 1620.91 889.873 1644.55 897.389 1676.8 C 893.676 1681.33 889.608 1691.19 885.913 1686.41 C 871.399 1665.41 853.973 1648.04 863.156 1619.51 C 868.107 1604.13 875.913 1598.02 889.615 1590.57 L 890.47 1590.1 Z" fill="rgb(233,164,35)"></path></svg>
